<?xml version="1.0" encoding="UTF-8" standalone="no"?>
<!-- Created with Inkscape (http://www.inkscape.org/) -->

<svg
   width="500"
   height="500"
   viewBox="0 0 132.29166 132.29167"
   version="1.1"
   id="svg1"
   inkscape:version="1.3.2 (091e20e, 2023-11-25, custom)"
   sodipodi:docname="bistroquet-logo.svg"
   xmlns:inkscape="http://www.inkscape.org/namespaces/inkscape"
   xmlns:sodipodi="http://sodipodi.sourceforge.net/DTD/sodipodi-0.dtd"
   xmlns="http://www.w3.org/2000/svg"
   xmlns:svg="http://www.w3.org/2000/svg">
  <sodipodi:namedview
     id="namedview1"
     pagecolor="#ffffff"
     bordercolor="#000000"
     borderopacity="0.25"
     inkscape:showpageshadow="2"
     inkscape:pageopacity="0.0"
     inkscape:pagecheckerboard="0"
     inkscape:deskcolor="#d1d1d1"
     inkscape:document-units="mm"
     inkscape:zoom="2.0924786"
     inkscape:cx="235.84471"
     inkscape:cy="238.23422"
     inkscape:window-width="2560"
     inkscape:window-height="1351"
     inkscape:window-x="-9"
     inkscape:window-y="-9"
     inkscape:window-maximized="1"
     inkscape:current-layer="layer1" />
  <defs
     id="defs1" />
  <g
     inkscape:label="Calque 1"
     inkscape:groupmode="layer"
     id="layer1">
    <path
       d="M 31.005477,109.14904 C 30.435521,108.14316 27.835229,101.8453 22.073165,87.834786 18.937561,87.51723 6.6050897,89.231318 6.4010038,85.8511 7.1251234,83.001811 15.183792,84.024418 17.801774,84.024418 21.118944,75.342361 27.76759,69.33586 36.442798,66.555435 c 2.463441,-0.666766 3.262608,-1.155753 5.033502,-3.079873 7.124637,-7.741101 17.302773,-9.353153 27.853011,-4.411479 2.373855,1.111898 3.22055,1.234938 9.231801,1.341575 8.778971,0.155732 12.248245,1.133001 18.57372,5.232048 3.870598,2.508218 10.076398,9.380413 13.055388,14.45727 l 2.30567,3.929442 c 3.74915,0.491823 10.42561,-0.815738 13.81474,0.416068 0.72056,0.838574 0.38982,2.142031 0.28608,3.156026 l -15.25882,0.476298 c -3.1893,7.087749 -5.6272,14.54937 -8.99813,21.5524 z M 107.59592,88.164003 c 0,-0.18106 -18.349593,-0.329217 -40.776856,-0.329217 -23.082699,0 -40.776839,0.181233 -40.776839,0.417651 0,0.614163 4.578191,11.41658 6.432563,16.133633 l 0.795793,2.02426 h 66.947129 c 2.30587,-6.13542 5.28902,-12.02518 7.37821,-18.246327 z M 46.1104,76.147584 c 5.208932,0.56968 11.493827,2.614664 16.86582,5.487804 3.91069,2.091574 5.823537,2.442284 12.489841,2.289941 l 6.085102,-0.139061 -8.006511,-4.844245 C 61.015706,71.361543 54.438154,69.051561 45.469944,69.082403 29.810022,69.136248 24.417353,77.618722 21.290765,84.024418 l 3.763433,-0.0079 3.763412,-0.0079 C 33.060711,78.430792 39.209148,75.73916 46.1104,76.14754 Z m 11.999509,7.093603 C 51.51051,80.031139 41.470233,78.957255 37.443737,81.030793 35.856256,81.778616 34.50008,82.87117 33.18576,84.024418 l 13.187303,-0.03887 c 12.034015,-0.03542 13.060465,-0.10054 11.736846,-0.744374 z m 27.069427,-8.094286 c -2.225565,-0.664151 -7.767189,-0.793349 -9.601033,-0.223835 -1.522101,0.295911 9.86211,9.080099 17.927189,9.071879 l 3.62934,-0.0038 c -3.361688,-3.84984 -7.070611,-7.23433 -11.955496,-8.844282 z m 3.91306,-9.589796 c -11.128916,-4.233423 -27.205782,1.775522 -27.169927,2.652829 2.577056,1.791555 5.559108,3.034267 8.377338,4.406133 5.364786,-1.866702 11.110391,-2.2431 16.587462,-0.603116 6.285806,1.906294 10.354945,7.126155 14.517401,11.943433 l 7.14344,0.06803 C 104.11186,75.829415 97.556748,69.201893 89.092396,65.557116 Z M 67.173825,61.891214 c -3.044115,-1.34584 -6.224024,-1.800462 -9.534881,-1.848178 -5.198896,-0.479081 -9.189326,2.008384 -13.022974,5.167687 4.015592,0.135461 7.92765,0.690868 11.824375,1.618283 3.472496,-1.833699 7.096085,-3.427478 10.73348,-4.937792 z M 53.454518,49.159543 c -0.745359,-0.831448 -0.640935,-1.430506 0.568058,-3.258452 3.002611,-4.545252 1.812418,-7.806951 -0.853196,-11.953271 -7.429106,-11.234704 0.762912,-17.122269 1.46874,-17.006187 1.82538,0.300205 1.952385,1.434404 0.430357,3.84311 -0.956675,1.513989 -1.453112,2.920484 -1.588457,4.500417 -0.541108,6.315783 7.219907,8.203132 5.43199,17.10257 -1.056614,5.259327 -3.781888,8.640935 -5.457492,6.771813 z m 12.341569,-2.55502 c 0.89507,-0.61708 2.071725,-4.262802 2.08107,-6.447988 0.02416,-5.662818 -5.053925,-6.339086 -5.460856,-13.46799 -0.276781,-4.848549 2.256711,-10.125891 4.676867,-9.742042 1.412127,0.223967 1.479154,1.595702 0.180167,3.686621 -1.398445,2.251034 -2.036627,4.649497 -1.700127,6.389737 0.604381,3.126258 5.656637,6.95718 5.708061,12.944164 0.03534,4.114348 -2.499973,9.764072 -4.381627,9.764072 -2.743353,0 -1.240285,-3.032314 -1.103555,-3.126574 z m 11.877245,2.366683 c -0.473701,-0.636677 -0.448491,-0.964907 0.155411,-2.02426 2.772299,-4.862678 3.024198,-7.73103 0.961079,-10.943421 -3.962792,-5.616053 -6.008326,-10.386281 -2.321634,-17.061705 0.914732,-1.483071 1.574349,-2.075157 2.31184,-2.075157 1.520403,0 2.097335,1.516784 1.11294,2.925948 -3.312502,4.654564 -2.4158,8.233899 0.625362,12.35476 6.880715,9.149209 -0.512465,19.959058 -2.845063,16.823835 z"
       style="fill:#000000;stroke-width:0.450966"
       id="path1"
       sodipodi:nodetypes="ccscsssssscsccccssssccsssscsscccsssccssscccsscssccscssccssccscsssccsscsssccsssssccccs" />
  </g>
</svg>
